<?xml version="1.0" encoding="UTF-8"?>
<svg width="22px" height="21px" viewBox="0 0 22 21" version="1.1" xmlns="http://www.w3.org/2000/svg" xmlns:xlink="http://www.w3.org/1999/xlink">
    <title>Group 45</title>
    <g id="RESERVATION" stroke="none" stroke-width="1" fill="none" fill-rule="evenodd">
        <g id="bokuya-booking" transform="translate(-120.000000, -859.000000)">
            <g id="Group-57" transform="translate(119.000000, 123.000000)">
                <g id="Group-27" transform="translate(0.000000, 522.000000)">
                    <g id="Group-31" transform="translate(0.000000, -0.000000)">
                        <g id="Group-41" transform="translate(2.000000, 212.482759)">
                            <g id="Group-37" transform="translate(0.000000, -0.000000)">
                                <g id="Group-45" transform="translate(0.000000, 2.000000)">
                                    <path d="M0,3.27492334 C0,2.31526595 0.796497537,1.52983942 1.76968181,1.52983942 L18.2303182,1.52983942 C19.2035025,1.52983942 20,2.31526595 20,3.27492334 L20,17.4856853 C20,18.4456511 19.2035025,19.2307692 18.2303182,19.2307692 L1.76968181,19.2307692 C0.796497537,19.2307692 0,18.4456511 0,17.4856853 L0,3.27492334 Z" id="Stroke-3" stroke="#000000" stroke-width="0.813071691" stroke-linecap="round"></path>
                                    <g id="Group-8" transform="translate(1.245438, 5.322953)">
                                        <line x1="0" y1="0.5" x2="17.4744742" y2="0.5" id="Fill-5" fill="#FFFFFF"></line>
                                        <line x1="0" y1="0.5" x2="17.4744742" y2="0.5" id="Stroke-7" stroke="#000000" stroke-width="0.813071691"></line>
                                    </g>
                                    <g id="Group-12" transform="translate(14.297553, 8.471937)">
                                        <polyline id="Fill-9" points="0 2.55918915 0 0 2.59526229 0"></polyline>
                                        <polyline id="Stroke-11" stroke="#000000" stroke-width="0.813071691" points="0 2.55918915 0 0 2.59526229 0"></polyline>
                                    </g>
                                    <g id="Group-16" transform="translate(8.702556, 8.471937)">
                                        <polyline id="Fill-13" points="0 2.55918915 0 0 2.59526229 0"></polyline>
                                        <polyline id="Stroke-15" stroke="#000000" stroke-width="0.813071691" points="0 2.55918915 0 0 2.59526229 0"></polyline>
                                    </g>
                                    <g id="Group-20" transform="translate(3.107466, 8.471937)">
                                        <polyline id="Fill-17" points="0 2.55918915 0 0 2.59526229 0"></polyline>
                                        <polyline id="Stroke-19" stroke="#000000" stroke-width="0.813071691" points="0 2.55918915 0 0 2.59526229 0"></polyline>
                                    </g>
                                    <g id="Group-24" transform="translate(8.702556, 13.676968)">
                                        <polyline id="Fill-21" points="0 2.55918915 0 0 2.59526229 0"></polyline>
                                        <polyline id="Stroke-23" stroke="#000000" stroke-width="0.813071691" points="0 2.55918915 0 0 2.59526229 0"></polyline>
                                    </g>
                                    <g id="Group-28" transform="translate(14.297553, 13.676968)">
                                        <polyline id="Fill-25" points="0 2.55918915 0 0 2.59526229 0"></polyline>
                                        <polyline id="Stroke-27" stroke="#000000" stroke-width="0.813071691" points="0 2.55918915 0 0 2.59526229 0"></polyline>
                                    </g>
                                    <g id="Group-32" transform="translate(3.107466, 13.676968)">
                                        <polyline id="Fill-29" points="0 2.55918915 0 0 2.59526229 0"></polyline>
                                        <polyline id="Stroke-31" stroke="#000000" stroke-width="0.813071691" points="0 2.55918915 0 0 2.59526229 0"></polyline>
                                    </g>
                                    <line x1="14.297553" y1="3.05949382" x2="14.297553" y2="0.000123349278" id="Stroke-33"></line>
                                    <line x1="5.70269721" y1="0" x2="5.70269721" y2="3.05937047" id="Stroke-35"></line>
                                    <g id="Group-40" transform="translate(13.800000, 0.000123)">
                                        <line x1="0.5" y1="3.05937047" x2="0.5" y2="0" id="Fill-37"></line>
                                        <line x1="0.5" y1="3.05937047" x2="0.5" y2="0" id="Stroke-39" stroke="#000000" stroke-width="0.813071691" stroke-linecap="round"></line>
                                    </g>
                                    <g id="Group-44" transform="translate(5.546337, 0.000000)">
                                        <line x1="0.5" y1="0" x2="0.5" y2="3.05937047" id="Fill-41" fill="#FFFFFF"></line>
                                        <line x1="0.5" y1="0" x2="0.5" y2="3.05937047" id="Stroke-43" stroke="#000000" stroke-width="0.813071691" stroke-linecap="round"></line>
                                    </g>
                                </g>
                            </g>
                        </g>
                    </g>
                </g>
            </g>
        </g>
    </g>
</svg>