<?xml version="1.0" encoding="UTF-8"?>
<svg width="22px" height="21px" viewBox="0 0 22 21" version="1.1" xmlns="http://www.w3.org/2000/svg" xmlns:xlink="http://www.w3.org/1999/xlink">
    <title>Group 11</title>
    <g id="RESERVATION" stroke="none" stroke-width="1" fill="none" fill-rule="evenodd">
        <g id="bokuya-booking" transform="translate(-120.000000, -1096.000000)">
            <g id="Group-57" transform="translate(119.000000, 123.000000)">
                <g id="Group-27" transform="translate(0.000000, 522.000000)">
                    <g id="Group-31" transform="translate(0.000000, -0.000000)">
                        <g id="Group-41" transform="translate(0.000000, 450.482759)">
                            <g id="Group-37" transform="translate(2.000000, 0.000000)">
                                <g id="Group-11" transform="translate(0.000000, 1.000000)">
                                    <polygon id="Stroke-1" stroke="#000000" stroke-width="0.8" stroke-linecap="round" stroke-linejoin="round" points="20 20 0 20 3.40012182 13.134604 16.5998782 13.134604"></polygon>
                                    <path d="M7.8638156,0.390373873 C6.47632482,0.900299583 5.34466066,1.99295172 4.78876671,3.36365768 C4.02224858,5.25358989 4.25531369,7.08034262 5.08691052,8.51775585 L9.26669445,15.7686429 C9.59240855,16.3334097 10.4076556,16.3334097 10.7336903,15.7686429 L14.9170006,8.51968009 C15.3965954,7.68199082 15.6777482,6.71473551 15.6777482,5.67981081 C15.6777482,1.85248162 11.8935659,-1.09065564 7.8638156,0.390373873 Z" id="Fill-3" fill="#FFFFFF"></path>
                                    <path d="M15.6777482,5.67981081 C15.6777482,1.85248162 11.8935659,-1.09065564 7.8638156,0.390373873 C6.47632482,0.900299583 5.34466066,1.99295172 4.78876671,3.36365768 C4.02224858,5.25358989 4.25531369,7.08034262 5.08691052,8.51775585 L9.26669445,15.7686429 C9.59240855,16.3334097 10.4076556,16.3334097 10.7336903,15.7686429 L14.9170006,8.51968009 C15.3965954,7.68199082 15.6777482,6.71473551 15.6777482,5.67981081 Z" id="Stroke-5" stroke="#FFFFFF" stroke-width="0.8" stroke-linecap="round" stroke-linejoin="round"></path>
                                    <path d="M15.6777482,5.67981081 C15.6777482,1.85248162 11.8935659,-1.09065564 7.8638156,0.390373873 C6.47632482,0.900299583 5.34466066,1.99295172 4.78876671,3.36365768 C4.02224858,5.25358989 4.25531369,7.08034262 5.08691052,8.51775585 L9.26669445,15.7686429 C9.59240855,16.3334097 10.4076556,16.3334097 10.7336903,15.7686429 L14.9170006,8.51968009 C15.3965954,7.68199082 15.6777482,6.71473551 15.6777482,5.67981081 Z" id="Stroke-7" stroke="#000000" stroke-width="0.8" stroke-linecap="round" stroke-linejoin="round"></path>
                                    <path d="M12.7700446,5.67981081 C12.7700446,7.21022936 11.5300228,8.45104858 9.99987177,8.45104858 C8.47004136,8.45104858 7.23001956,7.21022936 7.23001956,5.67981081 C7.23001956,4.14939227 8.47004136,2.90857304 9.99987177,2.90857304" id="Stroke-9" stroke="#000000" stroke-width="0.8" stroke-linecap="round" stroke-linejoin="round"></path>
                                </g>
                            </g>
                        </g>
                    </g>
                </g>
            </g>
        </g>
    </g>
</svg>